<svg id="epmq7eCdzsG1" xmlns="http://www.w3.org/2000/svg" xmlns:xlink="http://www.w3.org/1999/xlink" viewBox="0 0 300 300" shape-rendering="geometricPrecision" text-rendering="geometricPrecision" project-id="138bf579c17f40dfbf892ff70101ebbb" export-id="03c36762ebfd43bdbe93fc1710c535dc" cached="true"><path d="M810,-2.166556q0,0-582,734.641212-104-2.374917-104-2.374917t311.189574-392.395028c0,0-311.189574-319.288648-311.189574-319.288648s104,0,104,0L481,281.24029q2,1.583279,230.533506-283.406846h98.466494M267,845.679068q0,0,582-721.183347q103.574312,0,103.574312,0L652.630475,512.287658q-2,2.374917,263.412778,266.102074c0,0-91.741215,0-91.741215,0Q605,559.105663,603,561.480581L374.688025,845.679068" transform="matrix(0.302982 0 0 0.353838 -11.4894 0.76661)"/></svg>
